<?xml version="1.0" standalone="no"?>
<!DOCTYPE svg PUBLIC "-//W3C//DTD SVG 20010904//EN"
 "http://www.w3.org/TR/2001/REC-SVG-20010904/DTD/svg10.dtd">
<svg version="1.0" xmlns="http://www.w3.org/2000/svg"
 width="1000.000000pt" height="1000.000000pt" viewBox="0 0 1000.000000 1000.000000"
 preserveAspectRatio="xMidYMid meet">

<g transform="translate(0.000000,1000.000000) scale(0.100000,-0.100000)"
fill="#000000" stroke="none">
<path d="M39 9961 l-39 -39 0 -4917 0 -4917 33 -33 c18 -18 52 -38 74 -44 29
-8 1407 -10 4909 -9 l4869 3 35 20 c19 12 43 36 55 55 l20 35 3 4869 c1 3502
-1 4880 -9 4909 -6 22 -26 56 -44 74 l-33 33 -4917 0 -4917 0 -39 -39z m9671
-4956 l0 -4715 -4715 0 -4715 0 0 4715 0 4715 4715 0 4715 0 0 -4715z"/>
<path d="M3780 7740 c-291 -22 -552 -103 -752 -237 -88 -58 -231 -201 -289
-288 -115 -174 -193 -381 -234 -625 -22 -132 -31 -456 -16 -621 59 -653 367
-1072 901 -1228 223 -65 203 -64 1023 -68 l748 -4 -5 -27 c-33 -172 -34 -224
-25 -922 4 -326 3 -337 -19 -416 -35 -123 -98 -187 -211 -214 -100 -24 -210 8
-300 86 -88 76 -180 248 -221 412 -32 125 -53 341 -48 488 l4 131 -215 6
c-119 4 -298 7 -398 7 -164 0 -182 -2 -187 -17 -16 -55 -28 -211 -23 -309 25
-473 181 -925 415 -1204 194 -231 480 -400 770 -456 99 -19 293 -18 390 2 486
100 781 424 868 954 13 77 16 178 15 530 -1 239 3 471 8 515 21 180 79 277
199 333 49 23 70 27 147 27 109 0 157 -20 244 -101 98 -90 211 -282 245 -416
44 -172 47 -579 7 -797 -12 -62 -20 -116 -17 -118 2 -3 71 -9 153 -14 81 -5
234 -16 338 -24 105 -9 233 -17 285 -18 l94 -2 17 73 c10 41 23 162 30 269 14
218 3 410 -32 583 -100 493 -361 972 -674 1239 -154 131 -287 210 -435 258
-47 15 -86 31 -88 35 -2 4 -563 8 -1247 8 -1187 0 -1248 1 -1357 20 -248 42
-371 115 -452 269 -53 101 -69 181 -69 346 0 160 16 242 65 343 56 113 149
189 289 236 180 60 168 59 1527 63 l1242 4 0 450 0 449 -1302 -1 c-717 -1
-1350 -5 -1408 -9z"/>
</g>
</svg>
