<svg version="1.1" id="Layer_1" xmlns="http://www.w3.org/2000/svg" xmlns:xlink="http://www.w3.org/1999/xlink" x="0px" y="0px"
	 width="100%" viewBox="0 0 1920 148" enable-background="new 0 0 1920 148" xml:space="preserve">
<path fill="#39B6FF" opacity="1.000000" stroke="none" 
	d="
M1.000000,49.000000 
	C1.000000,33.003258 1.000000,17.006516 1.000000,1.049597 
	C641.000000,1.049597 1281.000000,1.049597 1921.000000,1.049597 
	C1921.000000,32.426327 1921.000000,63.753456 1920.645386,95.449493 
	C1906.014526,90.255775 1891.757202,84.643570 1877.458252,79.139908 
	C1835.091187,62.832767 1792.158813,48.614601 1746.751709,43.360683 
	C1707.649048,38.836235 1669.052612,41.509533 1631.667725,53.757690 
	C1597.023193,65.108040 1562.967773,78.249458 1528.596680,90.443810 
	C1500.209473,100.515213 1471.177368,107.835701 1440.899902,108.714592 
	C1396.860229,109.992973 1354.950562,99.374634 1314.071167,84.382126 
	C1288.909912,75.154266 1264.264526,64.518349 1239.395752,54.494652 
	C1178.528198,29.961250 1118.052734,33.608547 1058.468384,58.409245 
	C1036.539185,67.536781 1015.935364,79.799858 994.408325,89.957283 
	C975.307007,98.970123 956.098083,107.944534 936.329224,115.303955 
	C913.036438,123.975266 888.591064,125.705902 863.899780,122.376274 
	C833.446228,118.269600 805.493530,106.707451 778.079407,93.518929 
	C752.868591,81.390396 727.906921,68.681831 702.294312,57.464504 
	C657.251099,37.737316 610.680725,34.383953 563.026062,47.034851 
	C535.331970,54.386814 509.507599,66.389618 483.740662,78.536392 
	C454.194794,92.464577 424.615845,106.220871 392.725922,114.215591 
	C370.669556,119.745049 348.409302,121.486473 325.807739,119.241219 
	C297.475677,116.426682 270.831482,107.486572 244.811356,96.530548 
	C219.948456,86.061760 195.294479,75.097809 170.513779,64.432533 
	C125.841606,45.206215 79.322632,39.005836 31.130562,44.929916 
	C21.072258,46.166348 11.042768,47.637184 1.000000,49.000000 
z"/>
<path fill="#FFFFFF" opacity="1.000000" stroke="none" 
	d="
M1.000000,49.468658 
	C11.042768,47.637184 21.072258,46.166348 31.130562,44.929916 
	C79.322632,39.005836 125.841606,45.206215 170.513779,64.432533 
	C195.294479,75.097809 219.948456,86.061760 244.811356,96.530548 
	C270.831482,107.486572 297.475677,116.426682 325.807739,119.241219 
	C348.409302,121.486473 370.669556,119.745049 392.725922,114.215591 
	C424.615845,106.220871 454.194794,92.464577 483.740662,78.536392 
	C509.507599,66.389618 535.331970,54.386814 563.026062,47.034851 
	C610.680725,34.383953 657.251099,37.737316 702.294312,57.464504 
	C727.906921,68.681831 752.868591,81.390396 778.079407,93.518929 
	C805.493530,106.707451 833.446228,118.269600 863.899780,122.376274 
	C888.591064,125.705902 913.036438,123.975266 936.329224,115.303955 
	C956.098083,107.944534 975.307007,98.970123 994.408325,89.957283 
	C1015.935364,79.799858 1036.539185,67.536781 1058.468384,58.409245 
	C1118.052734,33.608547 1178.528198,29.961250 1239.395752,54.494652 
	C1264.264526,64.518349 1288.909912,75.154266 1314.071167,84.382126 
	C1354.950562,99.374634 1396.860229,109.992973 1440.899902,108.714592 
	C1471.177368,107.835701 1500.209473,100.515213 1528.596680,90.443810 
	C1562.967773,78.249458 1597.023193,65.108040 1631.667725,53.757690 
	C1669.052612,41.509533 1707.649048,38.836235 1746.751709,43.360683 
	C1792.158813,48.614601 1835.091187,62.832767 1877.458252,79.139908 
	C1891.757202,84.643570 1906.014526,90.255775 1920.645386,95.909195 
	C1921.000000,113.662941 1921.000000,131.325882 1921.000000,148.957855 
	C1281.000000,148.957855 641.000000,148.957855 1.000000,148.957855 
	C1.000000,115.922913 1.000000,82.930115 1.000000,49.468658 
z"/>
</svg>